<?xml version="1.0" encoding="utf-8"?>
<!-- Generator: Adobe Illustrator 26.0.1, SVG Export Plug-In . SVG Version: 6.00 Build 0)  -->
<svg version="1.1" id="Layer_1" xmlns="http://www.w3.org/2000/svg" xmlns:xlink="http://www.w3.org/1999/xlink" x="0px" y="0px"
	 viewBox="0 0 189.19 68.23" style="enable-background:new 0 0 189.19 68.23;" xml:space="preserve">
<style type="text/css">
	.st0{fill:#120C08;}
</style>
<g>
	<path class="st0" d="M51.8,42.59c0-8.29,0-13.78,0-19.28c-0.55-0.31-1.1-0.61-1.65-0.92C44.33,30.01,38.5,37.62,32.2,45.86
		c-6.03-8.25-11.67-15.96-17.3-23.67c-0.55,0.22-1.11,0.44-1.66,0.66c0,11.92,0.07,23.84-0.03,35.76
		c-0.05,6.21-5.53,9.59-11.02,6.67c-1.18-0.63-2.02-3-2.04-4.57C0,42.38,0.12,24.04,0,5.71C-0.02,1.9,1.41,0.66,5.2,0.32
		c6.57-0.59,11.36,0.89,14.75,7.19c3.15,5.86,7.44,11.11,12.13,17.94c5.22-7.14,9.83-13.61,14.66-19.93
		c1.61-2.1,2.63-6.31,6.66-3.74c4.08,2.6,11.14,1.76,11.35,8.98c0.09,2.91-0.13,6.13-1.29,8.72C60.3,26.52,56.55,33.29,51.8,42.59z"
		/>
	<path class="st0" d="M187.54,0.37c-2.32,9.02-7.41,12.24-15.85,11.19c-4.8-0.59-9.73-0.11-14.6-0.05c-4.3,0.05-7.16,2.17-8.01,6.41
		c-0.74,3.71,2.42,8.16,6.9,8.87c4.4,0.7,8.96,0.36,13.45,0.52c12.44,0.44,19.5,6.97,19.77,18.26c0.25,10.97-6.93,19-18.78,19.5
		c-13.84,0.57-27.73,0.07-41.59,0.21c-4.5,0.05-5.8-2.08-5.75-6.2c0.05-4.01,2.12-5.14,5.66-5.13c11.62,0.03,23.24,0.01,34.85-0.06
		c2.99-0.02,6.05,0.09,8.95-0.49c4.13-0.83,7.17-3.83,6.22-7.91c-0.62-2.69-3.56-6.16-6.09-6.8c-4.97-1.26-10.4-0.59-15.6-1.08
		c-12.19-1.16-19.07-9.37-18.01-21.19c0.75-8.33,6.49-15.35,14.78-15.88C164.93-0.17,176.11,0.37,187.54,0.37z"/>
	<path class="st0" d="M78.18,0.2c7.14,1.85,8.73,8.17,12.24,12.41c3.78,4.56,7.17,9.45,11.52,15.24c5.97-8,11.67-15.16,16.79-22.72
		c2.65-3.92,5.71-5.27,10.25-5.12c4.22,0.13,5.91,1.5,5.82,5.94c-0.24,12.33-0.11,24.66-0.06,36.99c0.02,3.71-0.39,6.5-5.29,6.57
		c-4.97,0.07-6.59-2.08-6.46-6.71c0.18-6.62,0.04-13.25,0.04-22.84c-7.99,10.1-14.28,18.05-21.23,26.84
		c-6.65-9.57-13.88-16.69-15.16-28.07C85.98,12.63,81.42,6.95,78.18,0.2z"/>
	<path class="st0" d="M64.62,68.23c-10.98-6.62-13.64-13.02-9.68-23.18c3.09-7.94,7.41-15.4,11.06-23.12
		c3-6.35,6.47-12.65,3.18-20.54c8.21,4.62,10.94,9.4,8.67,16.66c-1.98,6.34-5.01,12.37-7.76,18.45c-1.83,4.06-4.02,7.96-5.98,11.97
		C61.18,54.51,58.99,60.62,64.62,68.23z"/>
	<path class="st0" d="M82.16,25.94c-0.39,11.02-0.85,22.76-1.19,34.49c-0.09,3.11-1.12,4.82-4.56,4.84
		c-3.83,0.02-8.43,0.48-8.62-4.53c-0.16-4.22,1.1-8.82,2.87-12.73C74.18,40.28,78.48,32.89,82.16,25.94z"/>
</g>
</svg>
